<svg xmlns="http://www.w3.org/2000/svg" xmlns:xlink="http://www.w3.org/1999/xlink" style="display:block;height:52px;width:52px;fill:currentcolor" width="100" height="100" aria-hidden="true" focusable="false" preserveAspectRatio="xMidYMid meet" role="presentation" viewBox="0 0 100 100"><g id="IcSystemOven32__R_G"><g id="IcSystemOven32__R_G_L_0_G" transform="translate(50, 50) scale(2, 2) translate(-40, -40)"><g id="IcSystemOven32__R_G_L_0_G_L_4_G_N_6_T_0_M"><g id="IcSystemOven32__R_G_L_0_G_L_4_G_N_6_T_0" transform="translate(40, 40)"><g id="IcSystemOven32__R_G_L_0_G_L_4_G" transform="translate(60, 60) translate(-40, -40)"><path id="IcSystemOven32__R_G_L_0_G_L_4_G_D_0_P_0" fill="#222" fill-opacity="1" fill-rule="nonzero" d="M52 26 C52,26 28,26 28,26 C26.9,26 26,26.9 26,28 C26,28 26,52 26,52 C26,53.11 26.9,54 28,54 C28,54 52,54 52,54 C53.11,54 54,53.11 54,52 C54,52 54,28 54,28 C54,26.9 53.11,26 52,26z M28 28 C28,28 52,28 52,28 C52,28 52,52 52,52 C52,52 28,52 28,52 C28,52 28,28 28,28z"/><path id="IcSystemOven32__R_G_L_0_G_L_4_G_D_1_P_0" fill="#222" fill-opacity="1" fill-rule="nonzero" d="M50 38 C50,38 30,38 30,38 C30,38 30,50 30,50 C30,50 50,50 50,50 C50,50 50,38 50,38z M48 40 C48,40 48,48 48,48 C48,48 32,48 32,48 C32,48 32,40 32,40 C32,40 48,40 48,40z"/><path id="IcSystemOven32__R_G_L_0_G_L_4_G_D_2_P_0" fill="#222" fill-opacity="1" fill-rule="nonzero" d="M53 34 C53,34 53,36 53,36 C53,36 27,36 27,36 C27,36 27,34 27,34 C27,34 53,34 53,34z"/><path id="IcSystemOven32__R_G_L_0_G_L_4_G_D_3_P_0" fill="#222" fill-opacity="1" fill-rule="nonzero" d="M49 30 C49.55,30 50,30.45 50,31 C50,31.55 49.55,32 49,32 C48.45,32 48,31.55 48,31 C48,30.45 48.45,30 49,30z"/><path id="IcSystemOven32__R_G_L_0_G_L_4_G_D_4_P_0" fill="#222" fill-opacity="1" fill-rule="nonzero" d="M43 30 C43.55,30 44,30.45 44,31 C44,31.55 43.55,32 43,32 C42.45,32 42,31.55 42,31 C42,30.45 42.45,30 43,30z"/><path id="IcSystemOven32__R_G_L_0_G_L_4_G_D_5_P_0" fill="#222" fill-opacity="1" fill-rule="nonzero" d="M37 30 C37.55,30 38,30.45 38,31 C38,31.55 37.55,32 37,32 C36.45,32 36,31.55 36,31 C36,30.45 36.45,30 37,30z"/><path id="IcSystemOven32__R_G_L_0_G_L_4_G_D_6_P_0" fill="#222" fill-opacity="1" fill-rule="nonzero" d="M31 30 C31.55,30 32,30.45 32,31 C32,31.55 31.55,32 31,32 C30.45,32 30,31.55 30,31 C30,30.45 30.45,30 31,30z"/></g></g></g><g id="IcSystemOven32__R_G_L_0_G_L_3_G_N_6_T_0_M"><g id="IcSystemOven32__R_G_L_0_G_L_3_G_N_6_T_0" transform="translate(40, 40)"><g id="IcSystemOven32__R_G_L_0_G_L_3_G" transform="translate(60, 60) translate(-40, -40)"><path id="IcSystemOven32__R_G_L_0_G_L_3_G_D_0_P_0" fill="#222" fill-opacity="1" fill-rule="nonzero" d="M52 26 C52,26 28,26 28,26 C26.9,26 26,26.9 26,28 C26,28 26.01,34.17 26.01,34.17 C26.01,35.27 26.91,36.17 28.01,36.17 C28.01,36.17 52.01,36.17 52.01,36.17 C53.12,36.17 54.01,35.27 54.01,34.17 C54.01,34.17 54,28 54,28 C54,26.9 53.11,26 52,26z"/><path id="IcSystemOven32__R_G_L_0_G_L_3_G_D_1_P_0" fill="#222" fill-opacity="1" fill-rule="nonzero" d="M53 34 C53,34 53,36 53,36 C53,36 27,36 27,36 C27,36 27,34 27,34 C27,34 53,34 53,34z"/><path id="IcSystemOven32__R_G_L_0_G_L_3_G_D_2_P_0" fill="#222" fill-opacity="1" fill-rule="nonzero" d="M49 30 C49.55,30 50,30.45 50,31 C50,31.55 49.55,32 49,32 C48.45,32 48,31.55 48,31 C48,30.45 48.45,30 49,30z"/><path id="IcSystemOven32__R_G_L_0_G_L_3_G_D_3_P_0" fill="#222" fill-opacity="1" fill-rule="nonzero" d="M43 30 C43.55,30 44,30.45 44,31 C44,31.55 43.55,32 43,32 C42.45,32 42,31.55 42,31 C42,30.45 42.45,30 43,30z"/><path id="IcSystemOven32__R_G_L_0_G_L_3_G_D_4_P_0" fill="#222" fill-opacity="1" fill-rule="nonzero" d="M37 30 C37.55,30 38,30.45 38,31 C38,31.55 37.55,32 37,32 C36.45,32 36,31.55 36,31 C36,30.45 36.45,30 37,30z"/><path id="IcSystemOven32__R_G_L_0_G_L_3_G_D_5_P_0" fill="#222" fill-opacity="1" fill-rule="nonzero" d="M31 30 C31.55,30 32,30.45 32,31 C32,31.55 31.55,32 31,32 C30.45,32 30,31.55 30,31 C30,30.45 30.45,30 31,30z"/></g></g></g><g id="IcSystemOven32__R_G_L_0_G_L_2_G_N_6_T_0_M"><g id="IcSystemOven32__R_G_L_0_G_L_2_G_N_6_T_0" transform="translate(40, 40)"><g id="IcSystemOven32__R_G_L_0_G_L_2_G" transform="translate(60, 60) translate(-40, -40)"><path id="IcSystemOven32__R_G_L_0_G_L_2_G_D_0_P_0" fill="#222" fill-opacity="1" fill-rule="nonzero" d="M52 26 C52,26 28,26 28,26 C26.9,26 26,26.9 26,28 C26,28 26,52 26,52 C26,53.11 26.9,54 28,54 C28,54 52,54 52,54 C53.11,54 54,53.11 54,52 C54,52 54,28 54,28 C54,26.9 53.11,26 52,26z M28 28 C28,28 52,28 52,28 C52,28 52,52 52,52 C52,52 28,52 28,52 C28,52 28,28 28,28z"/><path id="IcSystemOven32__R_G_L_0_G_L_2_G_D_1_P_0" fill="#222" fill-opacity="1" fill-rule="nonzero" d="M50 38 C50,38 30,38 30,38 C30,38 30,50 30,50 C30,50 50,50 50,50 C50,50 50,38 50,38z M48 40 C48,40 48,48 48,48 C48,48 32,48 32,48 C32,48 32,40 32,40 C32,40 48,40 48,40z"/><path id="IcSystemOven32__R_G_L_0_G_L_2_G_D_2_P_0" fill="#222" fill-opacity="1" fill-rule="nonzero" d="M53 34 C53,34 53,36 53,36 C53,36 27,36 27,36 C27,36 27,34 27,34 C27,34 53,34 53,34z"/><path id="IcSystemOven32__R_G_L_0_G_L_2_G_D_3_P_0" fill="#222" fill-opacity="1" fill-rule="nonzero" d="M49 30 C49.55,30 50,30.45 50,31 C50,31.55 49.55,32 49,32 C48.45,32 48,31.55 48,31 C48,30.45 48.45,30 49,30z"/><path id="IcSystemOven32__R_G_L_0_G_L_2_G_D_4_P_0" fill="#222" fill-opacity="1" fill-rule="nonzero" d="M43 30 C43.55,30 44,30.45 44,31 C44,31.55 43.55,32 43,32 C42.45,32 42,31.55 42,31 C42,30.45 42.45,30 43,30z"/><path id="IcSystemOven32__R_G_L_0_G_L_2_G_D_5_P_0" fill="#222" fill-opacity="1" fill-rule="nonzero" d="M37 30 C37.55,30 38,30.45 38,31 C38,31.55 37.55,32 37,32 C36.45,32 36,31.55 36,31 C36,30.45 36.45,30 37,30z"/><path id="IcSystemOven32__R_G_L_0_G_L_2_G_D_6_P_0" fill="#222" fill-opacity="1" fill-rule="nonzero" d="M31 30 C31.55,30 32,30.45 32,31 C32,31.55 31.55,32 31,32 C30.45,32 30,31.55 30,31 C30,30.45 30.45,30 31,30z"/></g></g></g><g id="IcSystemOven32__R_G_L_0_G_L_1_G_N_5_N_6_T_0_M"><g id="IcSystemOven32__R_G_L_0_G_L_1_G_N_5_N_6_T_0" transform="translate(40, 40)"><g id="IcSystemOven32__R_G_L_0_G_L_1_G_N_5_T_0" transform="translate(60, 60) translate(-40, -40)"><g id="IcSystemOven32__R_G_L_0_G_L_1_G"><path id="IcSystemOven32__R_G_L_0_G_L_1_G_D_1_P_0" fill="none" stroke="#222" stroke-linecap="round" stroke-linejoin="round" stroke-opacity="1" stroke-width="2" d="M31 39 C31,39 49,39 49,39 C49,39 49,49 49,49 C49,49 31,49 31,49 C31,49 31,39 31,39z"/></g></g></g></g><g id="IcSystemOven32__R_G_L_0_G_L_0_G_M"><g id="IcSystemOven32__R_G_L_0_G_L_0_G" transform="translate(40, 44)"><path id="IcSystemOven32__R_G_L_0_G_L_0_G_D_0_P_0" fill="none" stroke="#222" stroke-linecap="round" stroke-linejoin="round" stroke-opacity="1" stroke-width="2" d="M34.94 38.28 C34.94,38.28 45.21,38.28 45.21,38.28 C47.72,38.28 49.81,40.21 50.01,42.7 C50.01,42.7 50.11,43.93 50.11,43.93 C50.25,45.55 49.05,46.97 47.43,47.11 C47.34,47.11 47.26,47.12 47.18,47.12 C47.18,47.12 32.97,47.12 32.97,47.12 C31.35,47.12 30.03,45.8 30.03,44.17 C30.03,44.09 30.03,44.01 30.04,43.93 C30.04,43.93 30.14,42.7 30.14,42.7 C30.35,40.21 32.43,38.28 34.94,38.28z M38.6 38.28 C38.6,38.28 40.81,41.97 40.81,41.97 M43.02 38.28 C43.02,38.28 45.23,41.97 45.23,41.97 M34.19 38.28 C34.19,38.28 36.4,41.97 36.4,41.97"/></g></g></g></g><defs><animateTransform fill="freeze" additive="sum" attributeName="transform" begin="0s" calcMode="spline" data-original-duration="3.3333333333333335s" dur="3.333" from="1 1" keySplines="0.167 0.167 0 1;0.54 0 0.207 1;0.167 0 0.833 1;0.167 0.167 0 1;0.54 0 0.207 1;0 0 0 0" keyTimes="0;0.025;0.17;0.505;0.53;0.675;1" max="3.333" repeatCount="0" to="1 1" type="scale" values="1 1;0.75 0.75;1 1;1 1;0.75 0.75;1 1;1 1" xlink:href="#IcSystemOven32__R_G_L_0_G_L_4_G_N_6_T_0"/><animateTransform fill="freeze" additive="sum" attributeName="transform" begin="0s" calcMode="spline" data-original-duration="3.3333333333333335s" dur="3.333" from="-60 -60" keySplines="0 0 1 1" keyTimes="0;1" max="3.333" repeatCount="0" to="-60 -60" type="translate" values="-60 -60;-60 -60" xlink:href="#IcSystemOven32__R_G_L_0_G_L_4_G_N_6_T_0"/><animate fill="freeze" attributeName="opacity" begin="0s" calcMode="spline" data-original-duration="3.3333333333333335s" dur="3.333" from="1" keySplines="0 0 0 0;0 0 0 0;0 0 0 0" keyTimes="0;0.045;0.045;1" max="3.333" repeatCount="0" to="0" values="1;1;0;0" xlink:href="#IcSystemOven32__R_G_L_0_G_L_4_G_N_6_T_0_M"/><animate fill="freeze" attributeName="d" attributeType="XML" begin="0s" calcMode="spline" data-original-duration="3.3333333333333335s" dur="3.333" from="M52 26 C52,26 28,26 28,26 C26.9,26 26,26.9 26,28 C26,28 26.01,34.17 26.01,34.17 C26.01,35.27 26.91,36.17 28.01,36.17 C28.01,36.17 52.01,36.17 52.01,36.17 C53.12,36.17 54.01,35.27 54.01,34.17 C54.01,34.17 54,28 54,28 C54,26.9 53.11,26 52,26z" keySplines="0.167 0.167 0.833 0.833;0.167 0.167 0.833 0.833;0.167 0.167 0.833 0.833;0.167 0.167 0.833 0.833;0.167 0.167 0.833 0.833;0.167 0.167 0.833 0.833;0.167 0.167 0.833 0.833;0.167 0.167 0.833 0.833;0 0 0 0" keyTimes="0;0.045;0.085;0.095;0.34;0.345;0.385;0.415;0.44;1" max="3.333" repeatCount="0" to="M52 26 C52,26 28,26 28,26 C26.9,26 26,26.9 26,28 C26,28 26,34.25 26,34.25 C26,35.36 26.9,36.25 28,36.25 C28,36.25 52,36.25 52,36.25 C53.11,36.25 54,35.36 54,34.25 C54,34.25 54,28 54,28 C54,26.9 53.11,26 52,26z" values="M52 26 C52,26 28,26 28,26 C26.9,26 26,26.9 26,28 C26,28 26.01,34.17 26.01,34.17 C26.01,35.27 26.91,36.17 28.01,36.17 C28.01,36.17 52.01,36.17 52.01,36.17 C53.12,36.17 54.01,35.27 54.01,34.17 C54.01,34.17 54,28 54,28 C54,26.9 53.11,26 52,26z M28 28 C28,28 52,28 52,28 C52,28 52.01,34.17 52.01,34.17 C52.01,34.17 28.01,34.17 28.01,34.17 C28.01,34.17 28,28 28,28z ;M52 26 C52,26 28,26 28,26 C26.9,26 26,26.9 26,28 C26,28 26.01,34.17 26.01,34.17 C26.01,35.27 26.91,36.17 28.01,36.17 C28.01,36.17 52.01,36.17 52.01,36.17 C53.12,36.17 54.01,35.27 54.01,34.17 C54.01,34.17 54,28 54,28 C54,26.9 53.11,26 52,26z M28 28 C28,28 52,28 52,28 C52,28 52.01,34.17 52.01,34.17 C52.01,34.17 28.01,34.17 28.01,34.17 C28.01,34.17 28,28 28,28z ;M52 26 C52,26 28,26 28,26 C26.9,26 26,26.9 26,28 C26,28 26.04,47.04 26.04,47.04 C26.04,48.14 26.93,49.04 28.04,49.04 C28.04,49.04 52.04,49.04 52.04,49.04 C53.14,49.04 54.04,48.14 54.04,47.04 C54.04,47.04 54,28 54,28 C54,26.9 53.11,26 52,26z M28 28 C28,28 52,28 52,28 C52,28 52.04,47.04 52.04,47.04 C52.04,47.04 28.04,47.04 28.04,47.04 C28.04,47.04 28,28 28,28z ;M52 26 C52,26 28,26 28,26 C26.9,26 26,26.9 26,28 C26,28 26,52 26,52 C26,53.11 26.9,54 28,54 C28,54 52,54 52,54 C53.11,54 54,53.11 54,52 C54,52 54,28 54,28 C54,26.9 53.11,26 52,26z M28 28 C28,28 52,28 52,28 C52,28 52,52 52,52 C52,52 28,52 28,52 C28,52 28,28 28,28z ;M52 26 C52,26 28,26 28,26 C26.9,26 26,26.9 26,28 C26,28 26,52 26,52 C26,53.11 26.9,54 28,54 C28,54 52,54 52,54 C53.11,54 54,53.11 54,52 C54,52 54,28 54,28 C54,26.9 53.11,26 52,26z M28 28 C28,28 52,28 52,28 C52,28 52,52 52,52 C52,52 28,52 28,52 C28,52 28,28 28,28z ;M52 26 C52,26 28,26 28,26 C26.9,26 26,26.9 26,28 C26,28 26,47.13 26,47.13 C26,48.23 26.9,49.13 28,49.13 C28,49.13 52,49.13 52,49.13 C53.11,49.13 54,48.23 54,47.13 C54,47.13 54,28 54,28 C54,26.9 53.11,26 52,26z M28 28 C28,28 52,28 52,28 C52,28 52,47.13 52,47.13 C52,47.13 28,47.13 28,47.13 C28,47.13 28,28 28,28z ;M52 26 C52,26 28,26 28,26 C26.9,26 26,26.9 26,28 C26,28 26,34.25 26,34.25 C26,35.36 26.9,36.25 28,36.25 C28,36.25 52,36.25 52,36.25 C53.11,36.25 54,35.36 54,34.25 C54,34.25 54,28 54,28 C54,26.9 53.11,26 52,26z M28 28 C28,28 52,28 52,28 C52,28 52,34.25 52,34.25 C52,34.25 28,34.25 28,34.25 C28,34.25 28,28 28,28z ;M52 26 C52,26 28,26 28,26 C26.9,26 26,26.9 26,28 C26,28 26,35.5 26,35.5 C26,36.6 26.9,37.5 28,37.5 C28,37.5 52,37.5 52,37.5 C53.11,37.5 54,36.6 54,35.5 C54,35.5 54,28 54,28 C54,26.9 53.11,26 52,26z M28 28 C28,28 52,28 52,28 C52,28 52,35.5 52,35.5 C52,35.5 28,35.5 28,35.5 C28,35.5 28,28 28,28z ;M52 26 C52,26 28,26 28,26 C26.9,26 26,26.9 26,28 C26,28 26,34.25 26,34.25 C26,35.36 26.9,36.25 28,36.25 C28,36.25 52,36.25 52,36.25 C53.11,36.25 54,35.36 54,34.25 C54,34.25 54,28 54,28 C54,26.9 53.11,26 52,26z M28 28 C28,28 52,28 52,28 C52,28 52,34.25 52,34.25 C52,34.25 28,34.25 28,34.25 C28,34.25 28,28 28,28z ;M52 26 C52,26 28,26 28,26 C26.9,26 26,26.9 26,28 C26,28 26,34.25 26,34.25 C26,35.36 26.9,36.25 28,36.25 C28,36.25 52,36.25 52,36.25 C53.11,36.25 54,35.36 54,34.25 C54,34.25 54,28 54,28 C54,26.9 53.11,26 52,26z M28 28 C28,28 52,28 52,28 C52,28 52,34.25 52,34.25 C52,34.25 28,34.25 28,34.25 C28,34.25 28,28 28,28z" xlink:href="#IcSystemOven32__R_G_L_0_G_L_3_G_D_0_P_0"/><animateTransform fill="freeze" additive="sum" attributeName="transform" begin="0s" calcMode="spline" data-original-duration="3.3333333333333335s" dur="3.333" from="1 1" keySplines="0.167 0.167 0 1;0.54 0 0.207 1;0.167 0 0.833 1;0.167 0.167 0 1;0.54 0 0.207 1;0 0 0 0" keyTimes="0;0.025;0.17;0.505;0.53;0.675;1" max="3.333" repeatCount="0" to="1 1" type="scale" values="1 1;0.75 0.75;1 1;1 1;0.75 0.75;1 1;1 1" xlink:href="#IcSystemOven32__R_G_L_0_G_L_3_G_N_6_T_0"/><animateTransform fill="freeze" additive="sum" attributeName="transform" begin="0s" calcMode="spline" data-original-duration="3.3333333333333335s" dur="3.333" from="-60 -60" keySplines="0 0 1 1" keyTimes="0;1" max="3.333" repeatCount="0" to="-60 -60" type="translate" values="-60 -60;-60 -60" xlink:href="#IcSystemOven32__R_G_L_0_G_L_3_G_N_6_T_0"/><animate fill="freeze" attributeName="opacity" begin="0s" calcMode="spline" data-original-duration="3.3333333333333335s" dur="3.333" from="0" keySplines="0 0 0 0;0 0 0 0;0 0 0 0;0 0 0 0;0 0 0 0" keyTimes="0;0.045;0.0450005;0.445;0.445;1" max="3.333" repeatCount="0" to="0" values="0;0;1;1;0;0" xlink:href="#IcSystemOven32__R_G_L_0_G_L_3_G_N_6_T_0_M"/><animateTransform fill="freeze" additive="sum" attributeName="transform" begin="0s" calcMode="spline" data-original-duration="3.3333333333333335s" dur="3.333" from="1 1" keySplines="0.167 0.167 0 1;0.54 0 0.207 1;0.167 0 0.833 1;0.167 0.167 0 1;0.54 0 0.207 1;0 0 0 0" keyTimes="0;0.025;0.17;0.505;0.53;0.675;1" max="3.333" repeatCount="0" to="1 1" type="scale" values="1 1;0.75 0.75;1 1;1 1;0.75 0.75;1 1;1 1" xlink:href="#IcSystemOven32__R_G_L_0_G_L_2_G_N_6_T_0"/><animateTransform fill="freeze" additive="sum" attributeName="transform" begin="0s" calcMode="spline" data-original-duration="3.3333333333333335s" dur="3.333" from="-60 -60" keySplines="0 0 1 1" keyTimes="0;1" max="3.333" repeatCount="0" to="-60 -60" type="translate" values="-60 -60;-60 -60" xlink:href="#IcSystemOven32__R_G_L_0_G_L_2_G_N_6_T_0"/><animate fill="freeze" attributeName="opacity" begin="0s" calcMode="spline" data-original-duration="3.3333333333333335s" dur="3.333" from="0" keySplines="0 0 0 0;0 0 0 0;0 0 0 0" keyTimes="0;0.445;0.4450005;1" max="3.333" repeatCount="0" to="1" values="0;0;1;1" xlink:href="#IcSystemOven32__R_G_L_0_G_L_2_G_N_6_T_0_M"/><animate fill="freeze" attributeName="d" attributeType="XML" begin="0s" calcMode="spline" data-original-duration="3.3333333333333335s" dur="3.333" from="M31 39 C31,39 49,39 49,39 C49,39 49,49 49,49 C49,49 31,49 31,49 C31,49 31,39 31,39z" keySplines="0.167 0.167 0.833 0.833;0.167 0.167 0.833 0.833;0.167 0.167 0.034 1;0.333 0 0.667 1;0.333 0 0 1;1 0 0.833 0.833;0.167 0.167 0.833 0.833;0.167 0.167 0.12 1;0.88 0 0.833 0.833;0 0 0 0" keyTimes="0;0.045;0.085;0.155;0.28;0.31;0.345;0.385;0.415;0.44;1" max="3.333" repeatCount="0" to="M31 39 C31,39 49,39 49,39 C49,39 49,49 49,49 C49,49 31,49 31,49 C31,49 31,39 31,39z" values="M31 39 C31,39 49,39 49,39 C49,39 49,49 49,49 C49,49 31,49 31,49 C31,49 31,39 31,39z M28 35 C28,35 52,35 52,35 C52.55,35 53,35.45 53,36 C53,36 53,52 53,52 C53,52.55 52.55,53 52,53 C52,53 28,53 28,53 C27.45,53 27,52.55 27,52 C27,52 27,36 27,36 C27,35.45 27.45,35 28,35z ;M31 39 C31,39 49,39 49,39 C49,39 49,49 49,49 C49,49 31,49 31,49 C31,49 31,39 31,39z M28 35 C28,35 52,35 52,35 C52.55,35 53,35.45 53,36 C53,36 53,52 53,52 C53,52.55 52.55,53 52,53 C52,53 28,53 28,53 C27.45,53 27,52.55 27,52 C27,52 27,36 27,36 C27,35.45 27.45,35 28,35z ;M27.69 48.97 C27.69,48.97 52.41,48.97 52.41,48.97 C52.41,48.97 49,51.85 49,51.85 C49,51.85 31,51.85 31,51.85 C31,51.85 27.69,48.97 27.69,48.97z M24.69 47.81 C24.69,47.81 55.41,47.81 55.41,47.81 C55.96,47.81 56.41,47.94 56.41,48.1 C56.41,48.1 53,52.71 53,52.71 C53,52.87 52.55,53 52,53 C52,53 28,53 28,53 C27.45,53 27,52.87 27,52.71 C27,52.71 23.69,48.1 23.69,48.1 C23.69,47.94 24.14,47.81 24.69,47.81z ;M29.18 58.93 C29.18,58.93 50.82,58.93 50.82,58.93 C50.82,58.93 49,54.7 49,54.7 C49,54.7 31,54.7 31,54.7 C31,54.7 29.18,58.93 29.18,58.93z M26.18 60.63 C26.18,60.63 53.82,60.63 53.82,60.63 C54.37,60.63 54.82,60.44 54.82,60.2 C54.82,60.2 53,53.42 53,53.42 C53,53.19 52.55,53 52,53 C52,53 28,53 28,53 C27.45,53 27,53.19 27,53.42 C27,53.42 25.18,60.2 25.18,60.2 C25.18,60.44 25.63,60.63 26.18,60.63z ;M29.18 58.93 C29.18,58.93 50.82,58.93 50.82,58.93 C50.82,58.93 49,54.7 49,54.7 C49,54.7 31,54.7 31,54.7 C31,54.7 29.18,58.93 29.18,58.93z M26.18 60.63 C26.18,60.63 53.82,60.63 53.82,60.63 C54.37,60.63 54.82,60.44 54.82,60.2 C54.82,60.2 53,53.42 53,53.42 C53,53.19 52.55,53 52,53 C52,53 28,53 28,53 C27.45,53 27,53.19 27,53.42 C27,53.42 25.18,60.2 25.18,60.2 C25.18,60.44 25.63,60.63 26.18,60.63z ;M29.18 59.71 C29.18,59.71 50.82,59.71 50.82,59.71 C50.82,59.71 49,54.7 49,54.7 C49,54.7 31,54.7 31,54.7 C31,54.7 29.18,59.71 29.18,59.71z M26.18 61.41 C26.18,61.41 53.82,61.41 53.82,61.41 C54.37,61.41 54.82,61.22 54.82,60.98 C54.82,60.98 53,53.42 53,53.42 C53,53.19 52.55,53 52,53 C52,53 28,53 28,53 C27.45,53 27,53.19 27,53.42 C27,53.42 25.18,60.98 25.18,60.98 C25.18,61.22 25.63,61.41 26.18,61.41z ;M27.69 48.97 C27.69,48.97 52.41,48.97 52.41,48.97 C52.41,48.97 49,51.85 49,51.85 C49,51.85 31,51.85 31,51.85 C31,51.85 27.69,48.97 27.69,48.97z M24.69 47.81 C24.69,47.81 55.41,47.81 55.41,47.81 C55.96,47.81 56.41,47.94 56.41,48.1 C56.41,48.1 53,52.71 53,52.71 C53,52.87 52.55,53 52,53 C52,53 28,53 28,53 C27.45,53 27,52.87 27,52.71 C27,52.71 23.69,48.1 23.69,48.1 C23.69,47.94 24.14,47.81 24.69,47.81z ;M31 39 C31,39 49,39 49,39 C49,39 49,49 49,49 C49,49 31,49 31,49 C31,49 31,39 31,39z M28 35 C28,35 52,35 52,35 C52.55,35 53,35.45 53,36 C53,36 53,52 53,52 C53,52.55 52.55,53 52,53 C52,53 28,53 28,53 C27.45,53 27,52.55 27,52 C27,52 27,36 27,36 C27,35.45 27.45,35 28,35z ;M30.53 40.42 C30.53,40.42 49.49,40.42 49.49,40.42 C49.49,40.42 49,49.41 49,49.41 C49,49.41 31,49.41 31,49.41 C31,49.41 30.53,40.42 30.53,40.42z M27.53 36.84 C27.53,36.84 52.49,36.84 52.49,36.84 C53.04,36.84 53.49,37.24 53.49,37.73 C53.49,37.73 53,52.1 53,52.1 C53,52.6 52.55,53 52,53 C52,53 28,53 28,53 C27.45,53 27,52.6 27,52.1 C27,52.1 26.53,37.73 26.53,37.73 C26.53,37.24 26.98,36.84 27.53,36.84z ;M31 39 C31,39 49,39 49,39 C49,39 49,49 49,49 C49,49 31,49 31,49 C31,49 31,39 31,39z M28 35 C28,35 52,35 52,35 C52.55,35 53,35.45 53,36 C53,36 53,52 53,52 C53,52.55 52.55,53 52,53 C52,53 28,53 28,53 C27.45,53 27,52.55 27,52 C27,52 27,36 27,36 C27,35.45 27.45,35 28,35z ;M31 39 C31,39 49,39 49,39 C49,39 49,49 49,49 C49,49 31,49 31,49 C31,49 31,39 31,39z M28 35 C28,35 52,35 52,35 C52.55,35 53,35.45 53,36 C53,36 53,52 53,52 C53,52.55 52.55,53 52,53 C52,53 28,53 28,53 C27.45,53 27,52.55 27,52 C27,52 27,36 27,36 C27,35.45 27.45,35 28,35z" xlink:href="#IcSystemOven32__R_G_L_0_G_L_1_G_D_1_P_0"/><animateTransform fill="freeze" additive="sum" attributeName="transform" begin="0s" calcMode="spline" data-original-duration="3.3333333333333335s" dur="3.333" from="1 1" keySplines="0.167 0.167 0 1;0.54 0 0.207 1;0.167 0 0.833 1;0.167 0.167 0 1;0.54 0 0.207 1;0 0 0 0" keyTimes="0;0.025;0.17;0.505;0.53;0.675;1" max="3.333" repeatCount="0" to="1 1" type="scale" values="1 1;0.75 0.75;1 1;1 1;0.75 0.75;1 1;1 1" xlink:href="#IcSystemOven32__R_G_L_0_G_L_1_G_N_5_N_6_T_0"/><animateTransform fill="freeze" additive="sum" attributeName="transform" begin="0s" calcMode="spline" data-original-duration="3.3333333333333335s" dur="3.333" from="-60 -60" keySplines="0 0 1 1" keyTimes="0;1" max="3.333" repeatCount="0" to="-60 -60" type="translate" values="-60 -60;-60 -60" xlink:href="#IcSystemOven32__R_G_L_0_G_L_1_G_N_5_N_6_T_0"/><animate fill="freeze" attributeName="opacity" begin="0s" calcMode="spline" data-original-duration="3.3333333333333335s" dur="3.333" from="0" keySplines="0 0 0 0;0 0 0 0;0 0 0 0;0 0 0 0;0 0 0 0" keyTimes="0;0.045;0.0450005;0.445;0.445;1" max="3.333" repeatCount="0" to="0" values="0;0;1;1;0;0" xlink:href="#IcSystemOven32__R_G_L_0_G_L_1_G_N_5_N_6_T_0_M"/><animateTransform fill="freeze" additive="sum" attributeName="transform" begin="0s" calcMode="spline" data-original-duration="3.3333333333333335s" dur="3.333" from="0 0" keySplines="0.167 0.167 0.667 1;0.167 0.167 0.667 1;0.333 0 0.667 1;0.333 0 0.833 0.833;0 0 0 0" keyTimes="0;0.075;0.115;0.34;0.36;1" max="3.333" repeatCount="0" to="0 0" type="scale" values="0 0;0 0;1 1;1 1;0 0;0 0" xlink:href="#IcSystemOven32__R_G_L_0_G_L_0_G"/><animateTransform fill="freeze" additive="sum" attributeName="transform" begin="0s" calcMode="spline" data-original-duration="3.3333333333333335s" dur="3.333" from="-40 -42.499" keySplines="0 0 1 1" keyTimes="0;1" max="3.333" repeatCount="0" to="-40 -42.499" type="translate" values="-40 -42.499;-40 -42.499" xlink:href="#IcSystemOven32__R_G_L_0_G_L_0_G"/><animate fill="freeze" attributeName="opacity" begin="0s" calcMode="spline" data-original-duration="3.3333333333333335s" dur="3.333" from="0" keySplines="0 0 0 0;0 0 0 0;0 0 0 0;0 0 0 0;0 0 0 0" keyTimes="0;0.03;0.0300005;0.4;0.4;1" max="3.333" repeatCount="0" to="0" values="0;0;1;1;0;0" xlink:href="#IcSystemOven32__R_G_L_0_G_L_0_G_M"/><animate attributeName="opacity" attributeType="XML" data-original-duration="3s" dur="3" from="0" max="3" repeatCount="0" to="1" xlink:href="#IcSystemOven32_time_group"/></defs></svg>