<svg xmlns:xlink="http://www.w3.org/1999/xlink" xmlns="http://www.w3.org/2000/svg" preserveAspectRatio="xMidYMid meet" aria-hidden="true" role="presentation" focusable="false" viewBox="0 0 100 100" style="display: block; height: 52px; width: 52px; fill: currentcolor;" width="100"  height="100" ><g id="IcSystemSnowflake32__R_G"><g id="IcSystemSnowflake32__R_G_L_0_G" transform=" translate(50, 50) scale(2, 2) translate(-40, -40)"><g id="IcSystemSnowflake32__R_G_L_0_G_L_0_G_N_2_T_0" transform=" translate(40.041, 39.93)"><g id="IcSystemSnowflake32__R_G_L_0_G_L_0_G"><path id="IcSystemSnowflake32__R_G_L_0_G_L_0_G_D_0_P_0" fill="#222222" fill-opacity="1" fill-rule="nonzero" d=" M1 -15 C1,-15 1,-10.97 1,-10.97 C1,-10.97 5.03,-13.29 5.03,-13.29 C5.03,-13.29 6.03,-11.56 6.03,-11.56 C6.03,-11.56 1,-8.66 1,-8.66 C1,-8.66 1,-1.73 1,-1.73 C1,-1.73 7,-5.2 7,-5.2 C7,-5.2 7,-11 7,-11 C7,-11 9,-11 9,-11 C9,-11 9,-6.35 9,-6.35 C9,-6.35 12.49,-8.37 12.49,-8.37 C12.49,-8.37 13.49,-6.63 13.49,-6.63 C13.49,-6.63 10,-4.62 10,-4.62 C10,-4.62 14.03,-2.29 14.03,-2.29 C14.03,-2.29 13.03,-0.56 13.03,-0.56 C13.03,-0.56 8,-3.46 8,-3.46 C8,-3.46 2,0 2,0 C2,0 8,3.46 8,3.46 C8,3.46 13.03,0.56 13.03,0.56 C13.03,0.56 14.03,2.29 14.03,2.29 C14.03,2.29 10,4.62 10,4.62 C10,4.62 13.49,6.63 13.49,6.63 C13.49,6.63 12.49,8.37 12.49,8.37 C12.49,8.37 9,6.35 9,6.35 C9,6.35 9,11 9,11 C9,11 7,11 7,11 C7,11 7,5.2 7,5.2 C7,5.2 1,1.73 1,1.73 C1,1.73 1,8.66 1,8.66 C1,8.66 6.03,11.56 6.03,11.56 C6.03,11.56 5.03,13.29 5.03,13.29 C5.03,13.29 1,10.97 1,10.97 C1,10.97 1,15 1,15 C1,15 -1,15 -1,15 C-1,15 -1,10.97 -1,10.97 C-1,10.97 -5.03,13.29 -5.03,13.29 C-5.03,13.29 -6.03,11.56 -6.03,11.56 C-6.03,11.56 -1,8.66 -1,8.66 C-1,8.66 -1,1.73 -1,1.73 C-1,1.73 -7,5.2 -7,5.2 C-7,5.2 -7,11 -7,11 C-7,11 -9,11 -9,11 C-9,11 -9,6.35 -9,6.35 C-9,6.35 -12.49,8.37 -12.49,8.37 C-12.49,8.37 -13.49,6.63 -13.49,6.63 C-13.49,6.63 -10,4.62 -10,4.62 C-10,4.62 -14.03,2.29 -14.03,2.29 C-14.03,2.29 -13.03,0.56 -13.03,0.56 C-13.03,0.56 -8,3.46 -8,3.46 C-8,3.46 -2,0 -2,0 C-2,0 -8,-3.46 -8,-3.46 C-8,-3.46 -13.03,-0.56 -13.03,-0.56 C-13.03,-0.56 -14.03,-2.29 -14.03,-2.29 C-14.03,-2.29 -10,-4.62 -10,-4.62 C-10,-4.62 -13.49,-6.63 -13.49,-6.63 C-13.49,-6.63 -12.49,-8.37 -12.49,-8.37 C-12.49,-8.37 -9,-6.35 -9,-6.35 C-9,-6.35 -9,-11 -9,-11 C-9,-11 -7,-11 -7,-11 C-7,-11 -7,-5.2 -7,-5.2 C-7,-5.2 -1,-1.73 -1,-1.73 C-1,-1.73 -1,-8.66 -1,-8.66 C-1,-8.66 -6.03,-11.56 -6.03,-11.56 C-6.03,-11.56 -5.03,-13.29 -5.03,-13.29 C-5.03,-13.29 -1,-10.97 -1,-10.97 C-1,-10.97 -1,-15 -1,-15 C-1,-15 1,-15 1,-15z "></path></g></g></g></g><g id="IcSystemSnowflake32_time_group"></g><defs><animateMotion repeatCount="0" dur="3.3333333333333335" begin="0s" xlink:href="#IcSystemSnowflake32__R_G_L_0_G_L_0_G" fill="freeze" keyTimes="0;0.03334;0.05166;0.07;0.08834;0.10666;0.125;0.14334;0.16166;0.18;0.19834;0.21666;0.235;0.25334;0.28;0.3233398;1" path="M59.98 60.08 C59.64,60.08 57.48,60.08 57.98,60.08 C58.48,60.08 62.98,60.08 62.98,60.08 C62.98,60.08 57.98,60.08 57.98,60.08 C57.98,60.08 62.98,60.08 62.98,60.08 C62.98,60.08 57.98,60.08 57.98,60.08 C57.98,60.08 62.98,60.08 62.98,60.08 C62.98,60.08 57.98,60.08 57.98,60.08 C57.98,60.08 62.98,60.08 62.98,60.08 C62.98,60.08 57.98,60.08 57.98,60.08 C57.98,60.08 62.98,60.08 62.98,60.08 C62.98,60.08 57.98,60.08 57.98,60.08 C57.98,60.08 62.98,60.08 62.98,60.08 C62.98,60.08 57.98,60.08 57.98,60.08 C57.98,60.08 62.64,60.08 62.98,60.08 C63.31,60.08 60.48,60.08 59.98,60.08 C59.98,60.08 59.98,60.08 59.98,60.08 " keyPoints="0;0.03;0.1;0.17;0.24;0.32;0.39;0.46;0.53;0.6;0.67;0.74;0.81;0.89;0.96;1;1" keySplines="0.333 0 0.833 0.833;0.167 0.167 0.833 0.833;0.167 0.167 0.833 0.833;0.167 0.167 0.833 0.833;0.167 0.167 0.833 0.833;0.167 0.167 0.833 0.833;0.167 0.167 0.833 0.833;0.167 0.167 0.833 0.833;0.167 0.167 0.833 0.833;0.167 0.167 0.833 0.833;0.167 0.167 0.833 0.833;0.167 0.167 0.833 0.833;0.167 0.167 0.833 0.833;0.167 0.167 0.667 1;0.333 0 0.667 1;0 0 0 0" calcMode="spline" data-original-duration="3.3333333333333335s" max="3.3333333333333335"></animateMotion><animateTransform repeatCount="0" dur="3.3333333333333335" begin="0s" xlink:href="#IcSystemSnowflake32__R_G_L_0_G_L_0_G_N_2_T_0" fill="freeze" attributeName="transform" from="1 1" to="1 1" type="scale" additive="sum" keyTimes="0;0.025;0.17;0.505;0.53;0.675;1" values="1 1;0.75 0.75;1 1;1 1;0.75 0.75;1 1;1 1" keySplines="0.167 0.167 0 1;0.54 0 0.207 1;0.167 0 0.833 1;0.167 0.167 0 1;0.54 0 0.207 1;0 0 0 0" calcMode="spline" data-original-duration="3.3333333333333335s" max="3.3333333333333335"></animateTransform><animateTransform repeatCount="0" dur="3.3333333333333335" begin="0s" xlink:href="#IcSystemSnowflake32__R_G_L_0_G_L_0_G_N_2_T_0" fill="freeze" attributeName="transform" from="-60 -60" to="-60 -60" type="translate" additive="sum" keyTimes="0;1" values="-60 -60;-60 -60" keySplines="0 0 1 1" calcMode="spline" data-original-duration="3.3333333333333335s" max="3.3333333333333335"></animateTransform><animate attributeType="XML" attributeName="opacity" dur="3" from="0" to="1" xlink:href="#IcSystemSnowflake32_time_group" data-original-duration="3s" repeatCount="0" max="3"></animate></defs></svg>