<svg xmlns="http://www.w3.org/2000/svg" xmlns:xlink="http://www.w3.org/1999/xlink" style="display:block;height:52px;width:52px;fill:currentcolor" width="100" height="100" aria-hidden="true" focusable="false" preserveAspectRatio="xMidYMid meet" role="presentation" viewBox="0 0 100 100"><g id="IcSystemDetectorCo32__R_G"><g id="IcSystemDetectorCo32__R_G_L_0_G" transform="translate(50, 50) scale(2, 2) translate(-40, -40)"><g id="IcSystemDetectorCo32__R_G_L_0_G_L_2_G_N_3_T_0" transform="translate(40, 40)"><g id="IcSystemDetectorCo32__R_G_L_0_G_L_2_G" transform="translate(60, 60) translate(-40, -40)"><path id="IcSystemDetectorCo32__R_G_L_0_G_L_2_G_D_0_P_0" fill="none" stroke="#222" stroke-linecap="round" stroke-linejoin="round" stroke-opacity="1" stroke-width="2" d="M31 27 C31,27 49,27 49,27 C51.21,27 53,28.79 53,31 C53,31 53,49 53,49 C53,51.21 51.21,53 49,53 C49,53 31,53 31,53 C28.79,53 27,51.21 27,49 C27,49 27,31 27,31 C27,28.79 28.79,27 31,27z"/><path id="IcSystemDetectorCo32__R_G_L_0_G_L_2_G_D_1_P_0" fill="#222" fill-opacity="1" fill-rule="nonzero" d="M33.08 39 C33.08,39 35.1,39 35.1,39 C35.5,37.04 37.04,35.5 39,35.1 C39,35.1 39,33.08 39,33.08 C35.94,33.52 33.52,35.94 33.08,39z"/><path id="IcSystemDetectorCo32__R_G_L_0_G_L_2_G_D_2_P_0" fill="#222" fill-opacity="1" fill-rule="nonzero" d="M39 46.92 C39,46.92 39,44.9 39,44.9 C37.04,44.5 35.5,42.96 35.1,41 C35.1,41 33.08,41 33.08,41 C33.52,44.06 35.94,46.48 39,46.92z"/><path id="IcSystemDetectorCo32__R_G_L_0_G_L_2_G_D_3_P_0" fill="#222" fill-opacity="1" fill-rule="nonzero" d="M41 33.08 C41,33.08 41,35.1 41,35.1 C42.96,35.5 44.5,37.04 44.9,39 C44.9,39 46.92,39 46.92,39 C46.48,35.94 44.06,33.52 41,33.08z"/><path id="IcSystemDetectorCo32__R_G_L_0_G_L_2_G_D_4_P_0" fill="#222" fill-opacity="1" fill-rule="nonzero" d="M46.92 41 C46.92,41 44.9,41 44.9,41 C44.5,42.96 42.96,44.5 41,44.9 C41,44.9 41,46.92 41,46.92 C44.06,46.48 46.48,44.06 46.92,41z"/><path id="IcSystemDetectorCo32__R_G_L_0_G_L_2_G_D_5_P_0" fill="none" stroke="#222" stroke-linecap="round" stroke-linejoin="round" stroke-opacity="1" stroke-width="2" d="M40 38 C41.11,38 42,38.9 42,40 C42,41.11 41.11,42 40,42 C38.9,42 38,41.11 38,40 C38,38.9 38.9,38 40,38z"/></g></g><g id="IcSystemDetectorCo32__R_G_L_0_G_L_1_G_N_3_T_0" transform="translate(40, 40)"><g id="IcSystemDetectorCo32__R_G_L_0_G_L_1_G" transform="translate(60, 60) translate(-40, -40)"><g id="IcSystemDetectorCo32__R_G_L_0_G_L_1_G_D_0_P_0_G_0_T_0" transform="translate(47, 33) translate(0, 0)"><path id="IcSystemDetectorCo32__R_G_L_0_G_L_1_G_D_0_P_0" fill="#000" fill-opacity="1" fill-rule="nonzero" d="M0 -1 C0.55,-1 1,-0.55 1,0 C1,0.55 0.55,1 0,1 C-0.55,1 -1,0.55 -1,0 C-1,-0.55 -0.55,-1 0,-1z"/></g></g></g></g></g><defs><animateTransform fill="freeze" additive="sum" attributeName="transform" begin="0s" calcMode="spline" data-original-duration="3.3333333333333335s" dur="3.333" from="1 1" keySplines="0.167 0.167 0 1;0.54 0 0.207 1;0.167 0 0.833 1;0.167 0.167 0 1;0.54 0 0.207 1;0 0 0 0" keyTimes="0;0.025;0.17;0.505;0.53;0.675;1" max="3.333" repeatCount="0" to="1 1" type="scale" values="1 1;0.75 0.75;1 1;1 1;0.75 0.75;1 1;1 1" xlink:href="#IcSystemDetectorCo32__R_G_L_0_G_L_2_G_N_3_T_0"/><animateTransform fill="freeze" additive="sum" attributeName="transform" begin="0s" calcMode="spline" data-original-duration="3.3333333333333335s" dur="3.333" from="-60 -60" keySplines="0 0 1 1" keyTimes="0;1" max="3.333" repeatCount="0" to="-60 -60" type="translate" values="-60 -60;-60 -60" xlink:href="#IcSystemDetectorCo32__R_G_L_0_G_L_2_G_N_3_T_0"/><animateTransform fill="freeze" additive="sum" attributeName="transform" begin="0s" calcMode="spline" data-original-duration="3.3333333333333335s" dur="3.333" from="1 1" keySplines="0.167 0.167 0 1;0.54 0 0.207 1;0.167 0 0.833 1;0.167 0.167 0 1;0.54 0 0.207 1;0 0 0 0" keyTimes="0;0.025;0.17;0.505;0.53;0.675;1" max="3.333" repeatCount="0" to="1 1" type="scale" values="1 1;0.75 0.75;1 1;1 1;0.75 0.75;1 1;1 1" xlink:href="#IcSystemDetectorCo32__R_G_L_0_G_L_1_G_N_3_T_0"/><animateTransform fill="freeze" additive="sum" attributeName="transform" begin="0s" calcMode="spline" data-original-duration="3.3333333333333335s" dur="3.333" from="-60 -60" keySplines="0 0 1 1" keyTimes="0;1" max="3.333" repeatCount="0" to="-60 -60" type="translate" values="-60 -60;-60 -60" xlink:href="#IcSystemDetectorCo32__R_G_L_0_G_L_1_G_N_3_T_0"/><animateTransform fill="freeze" additive="sum" attributeName="transform" begin="0s" calcMode="spline" data-original-duration="3.3333333333333335s" dur="3.333" from="1 1" keySplines="0.167 0.167 0 1;0.54 0 0.207 1;0.167 0 0.833 1;0.167 0.167 0 1;0.54 0 0.207 1;0 0 0 0" keyTimes="0;0.025;0.17;0.505;0.53;0.675;1" max="3.333" repeatCount="0" to="1 1" type="scale" values="1 1;0.75 0.75;1 1;1 1;0.75 0.75;1 1;1 1" xlink:href="#IcSystemDetectorCo32__R_G_L_0_G_L_0_G"/><animateTransform fill="freeze" additive="sum" attributeName="transform" begin="0s" calcMode="spline" data-original-duration="3.3333333333333335s" dur="3.333" from="-60 -60" keySplines="0 0 1 1" keyTimes="0;1" max="3.333" repeatCount="0" to="-60 -60" type="translate" values="-60 -60;-60 -60" xlink:href="#IcSystemDetectorCo32__R_G_L_0_G_L_0_G"/><animate attributeName="opacity" attributeType="XML" data-original-duration="3s" dur="3" from="0" max="3" repeatCount="0" to="1" xlink:href="#IcSystemDetectorCo32_time_group"/></defs></svg>