<svg xmlns="http://www.w3.org/2000/svg" xmlns:xlink="http://www.w3.org/1999/xlink" style="display:block;height:52px;width:52px;fill:currentcolor" width="100" height="100" aria-hidden="true" focusable="false" preserveAspectRatio="xMidYMid meet" role="presentation" viewBox="0 0 100 100"><g id="IcSystemLockOnDoor32__R_G"><g id="IcSystemLockOnDoor32__R_G_L_0_G" transform="translate(50, 50) scale(2, 2) translate(-40, -40)"><g id="IcSystemLockOnDoor32__R_G_L_0_G_L_0_G_N_3_T_0" transform="translate(40, 40)"><g id="IcSystemLockOnDoor32__R_G_L_0_G_L_0_G" transform="translate(60, 60) translate(-40, -40)"><path id="IcSystemLockOnDoor32__R_G_L_0_G_L_0_G_D_0_P_0" fill="#222" fill-opacity="1" fill-rule="nonzero" d="M53 53 C53,53 53,55 53,55 C53,55 27,55 27,55 C27,55 27,53 27,53 C27,53 53,53 53,53z"/><path id="IcSystemLockOnDoor32__R_G_L_0_G_L_0_G_D_1_P_0" fill="#222" fill-opacity="1" fill-rule="nonzero" d="M49 25 C49,25 31,25 31,25 C29.9,25 29,25.9 29,27 C29,27 29,55 29,55 C29,55 51,55 51,55 C51,55 51,27 51,27 C51,25.9 50.11,25 49,25z M31 27 C31,27 49,27 49,27 C49,27 49,53 49,53 C49,53 31,53 31,53 C31,53 31,27 31,27z"/><path id="IcSystemLockOnDoor32__R_G_L_0_G_L_0_G_D_2_P_0" fill="#222" fill-opacity="1" fill-rule="nonzero" d="M40 37 C37.24,37 35,39.24 35,42 C35,44.76 37.24,47 40,47 C42.76,47 45,44.76 45,42 C45,39.24 42.76,37 40,37z M40 39 C41.66,39 43,40.34 43,42 C43,43.66 41.66,45 40,45 C38.34,45 37,43.66 37,42 C37,40.34 38.34,39 40,39z"/><path id="IcSystemLockOnDoor32__R_G_L_0_G_L_0_G_D_3_P_0" fill="#222" fill-opacity="1" fill-rule="nonzero" d="M40 41 C40.55,41 41,41.45 41,42 C41,42.55 40.55,43 40,43 C39.45,43 39,42.55 39,42 C39,41.45 39.45,41 40,41z"/><path id="IcSystemLockOnDoor32__R_G_L_0_G_L_0_G_D_4_P_0" fill="#222" fill-opacity="1" fill-rule="nonzero" d="M40 33 C41.59,33 42.9,34.24 43,35.82 C43,35.82 43,36 43,36 C43,36 43,39 43,39 C43,39 41,39 41,39 C41,39 41,36 41,36 C41,35.45 40.55,35 40,35 C39.49,35 39.07,35.38 39.01,35.88 C39.01,35.88 39,36 39,36 C39,36 39,39 39,39 C39,39 37,39 37,39 C37,39 37,36 37,36 C37,34.34 38.34,33 40,33z"/></g></g></g></g><defs><animate fill="freeze" attributeName="d" attributeType="XML" begin="0s" calcMode="spline" data-original-duration="3.3333333333333335s" dur="3.333" from="M40 33 C41.59,33 42.9,34.24 43,35.82 C43,35.82 43,36 43,36 C43,36 43,39 43,39 C43,39 41,39 41,39 C41,39 41,36 41,36 C41,35.45 40.55,35 40,35 C39.49,35 39.07,35.38 39.01,35.88 C39.01,35.88 39,36 39,36 C39,36 39,39 39,39 C39,39 37,39 37,39 C37,39 37,36 37,36 C37,34.34 38.34,33 40,33z" keySplines="0.333 0 0.667 1;0.333 0 0.617 1;0.81 0 0.667 1;0.333 0 0.667 1;0 0 0 0" keyTimes="0;0.03;0.13;0.245;0.295;1" max="3.333" repeatCount="0" to="M40 33 C41.59,33 42.9,34.24 43,35.82 C43,35.82 43,36 43,36 C43,36 43,39 43,39 C43,39 41,39 41,39 C41,39 41,36 41,36 C41,35.45 40.55,35 40,35 C39.49,35 39.07,35.38 39.01,35.88 C39.01,35.88 39,36 39,36 C39,36 39,39 39,39 C39,39 37,39 37,39 C37,39 37,36 37,36 C37,34.34 38.34,33 40,33z" values="M40 33 C41.59,33 42.9,34.24 43,35.82 C43,35.82 43,36 43,36 C43,36 43,39 43,39 C43,39 41,39 41,39 C41,39 41,36 41,36 C41,35.45 40.55,35 40,35 C39.49,35 39.07,35.38 39.01,35.88 C39.01,35.88 39,36 39,36 C39,36 39,39 39,39 C39,39 37,39 37,39 C37,39 37,36 37,36 C37,34.34 38.34,33 40,33z ;M40 28.91 C41.59,28.91 42.9,30.15 42.99,31.73 C42.99,31.73 43,31.91 43,31.91 C43,31.91 43,34.91 43,34.91 C43,34.91 41,34.91 41,34.91 C41,34.91 41,31.91 41,31.91 C41,31.36 40.55,30.91 40,30.91 C39.49,30.91 39.07,31.29 39.01,31.79 C39.01,31.79 39,31.91 39,31.91 C39,31.91 39,39 39,39 C39,39 37,39 37,39 C37,39 37,31.91 37,31.91 C37,30.25 38.34,28.91 40,28.91z ;M40.01 27.86 C41.6,27.86 42.91,29.1 43,30.68 C43,30.68 43.01,30.86 43.01,30.86 C43.01,30.86 43.01,33.86 43.01,33.86 C43.01,33.86 41.01,33.86 41.01,33.86 C41.01,33.86 41.01,30.86 41.01,30.86 C41.01,30.31 40.56,29.86 40.01,29.86 C39.5,29.86 39.07,30.24 39.01,30.74 C39.01,30.74 39.01,30.86 39.01,30.86 C39.01,30.86 39,39 39,39 C39,39 37,39 37,39 C37,39 37.01,30.86 37.01,30.86 C37.01,29.2 38.35,27.86 40.01,27.86z ;M40.01 33.75 C41.6,33.75 42.92,34.99 43.01,36.58 C43.01,36.58 43.01,36.75 43.01,36.75 C43.01,36.75 43.01,38.74 43.01,38.74 C43.01,38.74 41.01,38.74 41.01,38.74 C41.01,38.74 41.01,36.75 41.01,36.75 C41.01,36.2 40.56,35.75 40.01,35.76 C39.51,35.76 39.08,36.13 39.02,36.64 C39.02,36.64 39.01,36.75 39.01,36.75 C39.01,36.75 39,39 39,39 C39,39 37,39 37,39 C37,39 37.01,36.75 37.01,36.75 C37.01,35.1 38.36,33.75 40.01,33.75z ;M40 33 C41.59,33 42.9,34.24 43,35.82 C43,35.82 43,36 43,36 C43,36 43,39 43,39 C43,39 41,39 41,39 C41,39 41,36 41,36 C41,35.45 40.55,35 40,35 C39.49,35 39.07,35.38 39.01,35.88 C39.01,35.88 39,36 39,36 C39,36 39,39 39,39 C39,39 37,39 37,39 C37,39 37,36 37,36 C37,34.34 38.34,33 40,33z ;M40 33 C41.59,33 42.9,34.24 43,35.82 C43,35.82 43,36 43,36 C43,36 43,39 43,39 C43,39 41,39 41,39 C41,39 41,36 41,36 C41,35.45 40.55,35 40,35 C39.49,35 39.07,35.38 39.01,35.88 C39.01,35.88 39,36 39,36 C39,36 39,39 39,39 C39,39 37,39 37,39 C37,39 37,36 37,36 C37,34.34 38.34,33 40,33z" xlink:href="#IcSystemLockOnDoor32__R_G_L_0_G_L_0_G_D_4_P_0"/><animateTransform fill="freeze" additive="sum" attributeName="transform" begin="0s" calcMode="spline" data-original-duration="3.3333333333333335s" dur="3.333" from="1 1" keySplines="0.167 0.167 0 1;0.54 0 0.207 1;0.167 0 0.833 1;0.167 0.167 0 1;0.54 0 0.207 1;0 0 0 0" keyTimes="0;0.025;0.17;0.505;0.53;0.675;1" max="3.333" repeatCount="0" to="1 1" type="scale" values="1 1;0.75 0.75;1 1;1 1;0.75 0.75;1 1;1 1" xlink:href="#IcSystemLockOnDoor32__R_G_L_0_G_L_0_G_N_3_T_0"/><animateTransform fill="freeze" additive="sum" attributeName="transform" begin="0s" calcMode="spline" data-original-duration="3.3333333333333335s" dur="3.333" from="-60 -60" keySplines="0 0 1 1" keyTimes="0;1" max="3.333" repeatCount="0" to="-60 -60" type="translate" values="-60 -60;-60 -60" xlink:href="#IcSystemLockOnDoor32__R_G_L_0_G_L_0_G_N_3_T_0"/><animate attributeName="opacity" attributeType="XML" data-original-duration="3s" dur="3" from="0" max="3" repeatCount="0" to="1" xlink:href="#IcSystemLockOnDoor32_time_group"/></defs></svg>