<svg xmlns="http://www.w3.org/2000/svg" xmlns:xlink="http://www.w3.org/1999/xlink" style="display:block;height:52px;width:52px;fill:currentcolor" width="100" height="100" aria-hidden="true" focusable="false" preserveAspectRatio="xMidYMid meet" role="presentation" viewBox="0 0 100 100"><g id="IcSystemDetectorSmoke32__R_G"><g id="IcSystemDetectorSmoke32__R_G_L_0_G" transform="translate(50, 50) scale(2, 2) translate(-40, -40)"><g id="IcSystemDetectorSmoke32__R_G_L_0_G_L_2_G_N_1_T_0" transform="translate(40, 40)"><g id="IcSystemDetectorSmoke32__R_G_L_0_G_L_2_G" transform="translate(60, 60) translate(-40, -40)"><g id="IcSystemDetectorSmoke32__R_G_L_0_G_L_2_G_D_0_P_0_G_0_T_0" transform="translate(47, 33) translate(0, 0)"><path id="IcSystemDetectorSmoke32__R_G_L_0_G_L_2_G_D_0_P_0" fill="#000" fill-opacity="1" fill-rule="nonzero" d="M0 -1 C0.55,-1 1,-0.55 1,0 C1,0.55 0.55,1 0,1 C-0.55,1 -1,0.55 -1,0 C-1,-0.55 -0.55,-1 0,-1z"/></g></g></g><g id="IcSystemDetectorSmoke32__R_G_L_0_G_L_1_G_N_1_T_0" transform="translate(40, 40)"><g id="IcSystemDetectorSmoke32__R_G_L_0_G_L_1_G" transform="translate(60, 60) translate(-40, -40)"><path id="IcSystemDetectorSmoke32__R_G_L_0_G_L_1_G_D_0_P_0" fill="none" stroke="#222" stroke-linecap="round" stroke-linejoin="round" stroke-opacity="1" stroke-width="2" d="M40 26 C47.73,26 54,32.27 54,40 C54,47.73 47.73,54 40,54 C32.27,54 26,47.73 26,40 C26,32.27 32.27,26 40,26z"/><path id="IcSystemDetectorSmoke32__R_G_L_0_G_L_1_G_D_1_P_0" fill="#222" fill-opacity="1" fill-rule="nonzero" d="M44.89 41 C44.49,42.95 42.96,44.5 41,44.89 C41,44.89 41,46.92 41,46.92 C41.09,46.91 41.18,46.9 41.27,46.89 C44.15,46.36 46.41,44.07 46.9,41.18 C46.91,41.12 46.91,41.06 46.92,41 C46.92,41 44.89,41 44.89,41z"/><path id="IcSystemDetectorSmoke32__R_G_L_0_G_L_1_G_D_2_P_0" fill="#222" fill-opacity="1" fill-rule="nonzero" d="M46.9 38.83 C46.41,35.89 44.09,33.58 41.15,33.09 C41.1,33.08 41.05,33.09 41,33.08 C41,33.08 41,35.11 41,35.11 C42.96,35.51 44.49,37.04 44.89,39 C44.89,39 46.92,39 46.92,39 C46.91,38.94 46.91,38.89 46.9,38.83z"/><path id="IcSystemDetectorSmoke32__R_G_L_0_G_L_1_G_D_3_P_0" fill="#222" fill-opacity="1" fill-rule="nonzero" d="M39 44.89 C37.04,44.49 35.51,42.96 35.11,41 C35.11,41 33.09,41 33.09,41 C33.1,41.07 33.09,41.13 33.1,41.2 C33.61,44.13 35.92,46.42 38.85,46.91 C38.9,46.91 38.95,46.91 39,46.92 C39,46.92 39,44.89 39,44.89z"/><path id="IcSystemDetectorSmoke32__R_G_L_0_G_L_1_G_D_4_P_0" fill="#222" fill-opacity="1" fill-rule="nonzero" d="M35.11 39 C35.51,37.05 37.04,35.51 39,35.11 C39,35.11 39,33.09 39,33.09 C38.91,33.1 38.81,33.1 38.72,33.12 C35.8,33.66 33.54,35.99 33.08,38.92 C33.08,38.95 33.08,38.97 33.08,39 C33.08,39 35.11,39 35.11,39z"/><path id="IcSystemDetectorSmoke32__R_G_L_0_G_L_1_G_D_5_P_0" fill="none" stroke="#222" stroke-linecap="round" stroke-linejoin="round" stroke-opacity="1" stroke-width="2" d="M40 38 C41.11,38 42,38.9 42,40 C42,41.11 41.11,42 40,42 C38.9,42 38,41.11 38,40 C38,38.9 38.9,38 40,38z"/></g></g></g></g><defs><animateTransform fill="freeze" additive="sum" attributeName="transform" begin="0s" calcMode="spline" data-original-duration="3.3333333333333335s" dur="3.333" from="1 1" keySplines="0.167 0.167 0 1;0.54 0 0.207 1;0.167 0 0.833 1;0.167 0.167 0 1;0.54 0 0.207 1;0 0 0 0" keyTimes="0;0.025;0.17;0.505;0.53;0.675;1" max="3.333" repeatCount="0" to="1 1" type="scale" values="1 1;0.75 0.75;1 1;1 1;0.75 0.75;1 1;1 1" xlink:href="#IcSystemDetectorSmoke32__R_G_L_0_G_L_2_G_N_1_T_0"/><animateTransform fill="freeze" additive="sum" attributeName="transform" begin="0s" calcMode="spline" data-original-duration="3.3333333333333335s" dur="3.333" from="-60 -60" keySplines="0 0 1 1" keyTimes="0;1" max="3.333" repeatCount="0" to="-60 -60" type="translate" values="-60 -60;-60 -60" xlink:href="#IcSystemDetectorSmoke32__R_G_L_0_G_L_2_G_N_1_T_0"/><animateTransform fill="freeze" additive="sum" attributeName="transform" begin="0s" calcMode="spline" data-original-duration="3.3333333333333335s" dur="3.333" from="1 1" keySplines="0.167 0.167 0 1;0.54 0 0.207 1;0.167 0 0.833 1;0.167 0.167 0 1;0.54 0 0.207 1;0 0 0 0" keyTimes="0;0.025;0.17;0.505;0.53;0.675;1" max="3.333" repeatCount="0" to="1 1" type="scale" values="1 1;0.75 0.75;1 1;1 1;0.75 0.75;1 1;1 1" xlink:href="#IcSystemDetectorSmoke32__R_G_L_0_G_L_1_G_N_1_T_0"/><animateTransform fill="freeze" additive="sum" attributeName="transform" begin="0s" calcMode="spline" data-original-duration="3.3333333333333335s" dur="3.333" from="-60 -60" keySplines="0 0 1 1" keyTimes="0;1" max="3.333" repeatCount="0" to="-60 -60" type="translate" values="-60 -60;-60 -60" xlink:href="#IcSystemDetectorSmoke32__R_G_L_0_G_L_1_G_N_1_T_0"/><animateTransform fill="freeze" additive="sum" attributeName="transform" begin="0s" calcMode="spline" data-original-duration="3.3333333333333335s" dur="3.333" from="1 1" keySplines="0.167 0.167 0 1;0.54 0 0.207 1;0.167 0 0.833 1;0.167 0.167 0 1;0.54 0 0.207 1;0 0 0 0" keyTimes="0;0.025;0.17;0.505;0.53;0.675;1" max="3.333" repeatCount="0" to="1 1" type="scale" values="1 1;0.75 0.75;1 1;1 1;0.75 0.75;1 1;1 1" xlink:href="#IcSystemDetectorSmoke32__R_G_L_0_G_L_0_G"/><animateTransform fill="freeze" additive="sum" attributeName="transform" begin="0s" calcMode="spline" data-original-duration="3.3333333333333335s" dur="3.333" from="-60 -60" keySplines="0 0 1 1" keyTimes="0;1" max="3.333" repeatCount="0" to="-60 -60" type="translate" values="-60 -60;-60 -60" xlink:href="#IcSystemDetectorSmoke32__R_G_L_0_G_L_0_G"/><animate attributeName="opacity" attributeType="XML" data-original-duration="3s" dur="3" from="0" max="3" repeatCount="0" to="1" xlink:href="#IcSystemDetectorSmoke32_time_group"/></defs></svg>