<svg xmlns:xlink="http://www.w3.org/1999/xlink" xmlns="http://www.w3.org/2000/svg" preserveAspectRatio="xMidYMid meet" aria-hidden="true" role="presentation" focusable="false" viewBox="0 0 100 100" style="display: block; height: 52px; width: 52px; fill: currentcolor;" width="100"  height="100" ><g id="IcSystemTv32__R_G"><g id="IcSystemTv32__R_G_L_0_G" transform=" translate(50, 50) scale(2, 2) translate(-40, -40)"><g id="IcSystemTv32__R_G_L_0_G_L_3_G_N_6_T_0" transform=" translate(40, 40)"><g id="IcSystemTv32__R_G_L_0_G_L_3_G" transform=" translate(60, 60) scale(1.317, 1.317) translate(0, 0)"><path id="IcSystemTv32__R_G_L_0_G_L_3_G_D_0_P_0" fill="#222222" fill-opacity="1" fill-rule="nonzero" d=" M-2.25 6.75 C-2.25,6.75 2.25,6.75 2.25,6.75 C2.25,6.75 2.25,8.25 2.25,8.25 C2.25,8.25 -2.25,8.25 -2.25,8.25 C-2.25,8.25 -2.25,6.75 -2.25,6.75z  M-5.25 8.25 C-5.25,8.25 -5.25,9.75 -5.25,9.75 C-5.25,9.75 5.25,9.75 5.25,9.75 C5.25,9.75 5.25,8.25 5.25,8.25 C5.25,8.25 3.75,8.25 3.75,8.25 C3.75,8.25 3.75,6.75 3.75,6.75 C3.75,6.75 4.56,6.75 4.56,6.75 C4.56,6.75 4.72,6.74 4.72,6.74 C6.72,6.66 6.61,5.84 4.6,5.84 C4.6,5.84 -4.82,5.84 -4.82,5.84 C-6.81,5.93 -6.7,6.75 -4.69,6.75 C-4.69,6.75 -3.75,6.75 -3.75,6.75 C-3.75,6.75 -3.75,8.25 -3.75,8.25 C-3.75,8.25 -5.25,8.25 -5.25,8.25z "></path></g></g><g id="IcSystemTv32__R_G_L_0_G_L_2_G_N_5_N_6_T_0_M"><g id="IcSystemTv32__R_G_L_0_G_L_2_G_N_5_N_6_T_0" transform=" translate(40, 40)"><g id="IcSystemTv32__R_G_L_0_G_L_2_G_N_5_T_0" transform=" translate(60, 60) scale(1.317, 1.317) translate(0, 0)"><g id="IcSystemTv32__R_G_L_0_G_L_2_G"><path id="IcSystemTv32__R_G_L_0_G_L_2_G_D_0_P_0" fill="#222222" fill-opacity="1" fill-rule="nonzero" d=" M-7.81 -8.69 C-7.81,-8.69 7.89,-8.69 7.89,-8.69 C7.89,-8.69 8.02,-8.69 8.02,-8.69 C9.2,-8.62 10.14,-7.64 10.14,-6.44 C10.14,-6.44 10.14,3.26 10.14,3.26 C10.14,3.26 10.14,3.39 10.14,3.39 C10.07,4.58 9.09,5.51 7.89,5.51 C7.89,5.51 -7.81,5.51 -7.81,5.51 C-7.81,5.51 -7.95,5.51 -7.95,5.51 C-9.13,5.44 -10.06,4.46 -10.06,3.26 C-10.06,3.26 -10.06,-6.44 -10.06,-6.44 C-10.06,-6.44 -10.06,-6.58 -10.06,-6.58 C-9.99,-7.76 -9.01,-8.69 -7.81,-8.69z "></path></g></g></g></g><g id="IcSystemTv32__R_G_L_0_G_L_1_G_N_5_N_6_T_0_M"><g id="IcSystemTv32__R_G_L_0_G_L_1_G_N_5_N_6_T_0" transform=" translate(40, 40)"><g id="IcSystemTv32__R_G_L_0_G_L_1_G_N_5_T_0" transform=" translate(60, 60) scale(1.317, 1.317) translate(0, 0)"><g id="IcSystemTv32__R_G_L_0_G_L_1_G"><path id="IcSystemTv32__R_G_L_0_G_L_1_G_D_0_P_0" fill="#222222" fill-opacity="1" fill-rule="nonzero" d=" M-0.53 -1.77 C-0.62,-1.77 -0.69,-1.5 -0.7,-1.15 C-0.7,-1.15 -0.7,-1.11 -0.7,-1.11 C-0.7,-1.11 -0.7,-1.11 -0.7,-1.11 C-0.7,-0.75 -0.63,-0.47 -0.55,-0.45 C-0.55,-0.45 -0.54,-0.45 -0.54,-0.45 C-0.54,-0.45 -0.17,-0.45 -0.17,-0.45 C-0.17,-0.45 -0.13,-0.45 -0.13,-0.45 C-0.13,-0.45 -0.05,-0.45 -0.05,-0.45 C-0.05,-0.45 0.54,-0.45 0.54,-0.45 C0.62,-0.45 0.69,-0.72 0.7,-1.07 C0.7,-1.07 0.7,-1.11 0.7,-1.11 C0.7,-1.11 0.7,-1.11 0.7,-1.11 C0.7,-1.46 0.63,-1.75 0.55,-1.77 C0.55,-1.77 0.54,-1.77 0.54,-1.77 C0.54,-1.77 -0.07,-1.77 -0.07,-1.77 C-0.07,-1.77 -0.14,-1.77 -0.14,-1.77 C-0.14,-1.77 -0.19,-1.77 -0.19,-1.77 C-0.19,-1.77 -0.53,-1.77 -0.53,-1.77z  M-7.87 -8.43 C-7.87,-8.43 7.84,-8.44 7.84,-8.44 C7.84,-8.44 7.97,-8.44 7.97,-8.44 C9.15,-8.37 10.09,-7.35 10.09,-6.15 C10.09,-6.15 10.07,3.55 10.07,3.55 C10.07,3.55 10.06,3.69 10.06,3.69 C9.99,4.87 9.01,5.8 7.82,5.8 C7.82,5.8 -7.9,5.82 -7.9,5.82 C-7.9,5.82 -8.03,5.81 -8.03,5.81 C-9.21,5.74 -10.15,4.76 -10.15,3.57 C-10.15,3.57 -10.12,-6.14 -10.12,-6.14 C-10.12,-6.14 -10.12,-6.31 -10.12,-6.31 C-10.05,-7.49 -9.07,-8.43 -7.87,-8.43z "></path></g></g></g></g><g id="IcSystemTv32__R_G_L_0_G_L_0_G_N_5_N_6_T_0" transform=" translate(40, 40)"><g id="IcSystemTv32__R_G_L_0_G_L_0_G_N_5_T_0" transform=" translate(60, 60) scale(1.317, 1.317) translate(0, 0)"><g id="IcSystemTv32__R_G_L_0_G_L_0_G"><path id="IcSystemTv32__R_G_L_0_G_L_0_G_D_0_P_0" fill="#222222" fill-opacity="1" fill-rule="nonzero" d=" M-7.5 -8.25 C-7.5,-8.25 7.5,-8.25 7.5,-8.25 C7.5,-8.25 7.63,-8.25 7.63,-8.25 C8.81,-8.18 9.75,-7.2 9.75,-6 C9.75,-6 9.75,3 9.75,3 C9.75,3 9.75,3.13 9.75,3.13 C9.68,4.31 8.7,5.25 7.5,5.25 C7.5,5.25 -7.5,5.25 -7.5,5.25 C-7.5,5.25 -7.63,5.25 -7.63,5.25 C-8.81,5.18 -9.75,4.2 -9.75,3 C-9.75,3 -9.75,-6 -9.75,-6 C-9.75,-6 -9.75,-6.13 -9.75,-6.13 C-9.68,-7.31 -8.7,-8.25 -7.5,-8.25z  M3.75 6.75 C3.75,6.75 7.5,6.75 7.5,6.75 C7.5,6.75 7.66,6.75 7.66,6.75 C9.66,6.66 11.25,5.02 11.25,3 C11.25,3 11.25,-6 11.25,-6 C11.25,-6 11.25,-6.16 11.25,-6.16 C11.16,-8.16 9.52,-9.75 7.5,-9.75 C7.5,-9.75 -7.5,-9.75 -7.5,-9.75 C-7.5,-9.75 -7.66,-9.75 -7.66,-9.75 C-9.66,-9.66 -11.25,-8.02 -11.25,-6 C-11.25,-6 -11.25,3 -11.25,3 C-11.25,3 -11.25,3.16 -11.25,3.16 C-11.16,5.16 -9.52,6.75 -7.5,6.75 C-7.5,6.75 -3.75,6.75 -3.75,6.75 C-3.75,6.75 3.75,6.75 3.75,6.75z "></path></g></g></g></g></g><g id="IcSystemTv32_time_group"></g><defs><animateTransform repeatCount="0" dur="3.3333333333333335" begin="0s" xlink:href="#IcSystemTv32__R_G_L_0_G_L_3_G_N_6_T_0" fill="freeze" attributeName="transform" from="1 1" to="1 1" type="scale" additive="sum" keyTimes="0;0.025;0.17;0.505;0.53;0.675;1" values="1 1;0.75 0.75;1 1;1 1;0.75 0.75;1 1;1 1" keySplines="0.167 0.167 0 1;0.54 0 0.207 1;0.167 0 0.833 1;0.167 0.167 0 1;0.54 0 0.207 1;0 0 0 0" calcMode="spline" data-original-duration="3.3333333333333335s" max="3.3333333333333335"></animateTransform><animateTransform repeatCount="0" dur="3.3333333333333335" begin="0s" xlink:href="#IcSystemTv32__R_G_L_0_G_L_3_G_N_6_T_0" fill="freeze" attributeName="transform" from="-60 -60" to="-60 -60" type="translate" additive="sum" keyTimes="0;1" values="-60 -60;-60 -60" keySplines="0 0 1 1" calcMode="spline" data-original-duration="3.3333333333333335s" max="3.3333333333333335"></animateTransform><animate repeatCount="0" dur="3.3333333333333335" begin="0s" xlink:href="#IcSystemTv32__R_G_L_0_G_L_2_G" fill="freeze" attributeName="opacity" from="0" to="1" keyTimes="0;0.015;1" values="0;1;1" keySplines="0.167 0.167 0.833 0.833;0 0 0 0" calcMode="spline" data-original-duration="3.3333333333333335s" max="3.3333333333333335"></animate><animateTransform repeatCount="0" dur="3.3333333333333335" begin="0s" xlink:href="#IcSystemTv32__R_G_L_0_G_L_2_G_N_5_N_6_T_0" fill="freeze" attributeName="transform" from="1 1" to="1 1" type="scale" additive="sum" keyTimes="0;0.025;0.17;0.505;0.53;0.675;1" values="1 1;0.75 0.75;1 1;1 1;0.75 0.75;1 1;1 1" keySplines="0.167 0.167 0 1;0.54 0 0.207 1;0.167 0 0.833 1;0.167 0.167 0 1;0.54 0 0.207 1;0 0 0 0" calcMode="spline" data-original-duration="3.3333333333333335s" max="3.3333333333333335"></animateTransform><animateTransform repeatCount="0" dur="3.3333333333333335" begin="0s" xlink:href="#IcSystemTv32__R_G_L_0_G_L_2_G_N_5_N_6_T_0" fill="freeze" attributeName="transform" from="-60 -60" to="-60 -60" type="translate" additive="sum" keyTimes="0;1" values="-60 -60;-60 -60" keySplines="0 0 1 1" calcMode="spline" data-original-duration="3.3333333333333335s" max="3.3333333333333335"></animateTransform><animate repeatCount="0" dur="3.3333333333333335" begin="0s" xlink:href="#IcSystemTv32__R_G_L_0_G_L_2_G_N_5_N_6_T_0_M" fill="freeze" attributeName="opacity" from="1" to="0" keyTimes="0;0.07;0.07;1" values="1;1;0;0" keySplines="0 0 0 0;0 0 0 0;0 0 0 0" calcMode="spline" data-original-duration="3.3333333333333335s" max="3.3333333333333335"></animate><animate repeatCount="0" dur="3.3333333333333335" begin="0s" xlink:href="#IcSystemTv32__R_G_L_0_G_L_1_G_D_0_P_0" fill="freeze" attributeName="d" attributeType="XML" from="M-0.53 -1.77 C-0.62,-1.77 -0.69,-1.5 -0.7,-1.15 C-0.7,-1.15 -0.7,-1.11 -0.7,-1.11 C-0.7,-1.11 -0.7,-1.11 -0.7,-1.11 C-0.7,-0.75 -0.63,-0.47 -0.55,-0.45 C-0.55,-0.45 -0.54,-0.45 -0.54,-0.45 C-0.54,-0.45 -0.17,-0.45 -0.17,-0.45 C-0.17,-0.45 -0.13,-0.45 -0.13,-0.45 C-0.13,-0.45 -0.05,-0.45 -0.05,-0.45 C-0.05,-0.45 0.54,-0.45 0.54,-0.45 C0.62,-0.45 0.69,-0.72 0.7,-1.07 C0.7,-1.07 0.7,-1.11 0.7,-1.11 C0.7,-1.11 0.7,-1.11 0.7,-1.11 C0.7,-1.46 0.63,-1.75 0.55,-1.77 C0.55,-1.77 0.54,-1.77 0.54,-1.77 C0.54,-1.77 -0.07,-1.77 -0.07,-1.77 C-0.07,-1.77 -0.14,-1.77 -0.14,-1.77 C-0.14,-1.77 -0.19,-1.77 -0.19,-1.77 C-0.19,-1.77 -0.53,-1.77 -0.53,-1.77z " to="M-7.5 -8.25 C-8.7,-8.25 -9.68,-7.31 -9.75,-6.13 C-9.75,-6.13 -9.75,-6 -9.75,-6 C-9.75,-6 -9.75,3 -9.75,3 C-9.75,4.2 -8.81,5.18 -7.63,5.25 C-7.63,5.25 -7.5,5.25 -7.5,5.25 C-7.5,5.25 -0.76,5.25 -0.76,5.25 C-0.76,5.25 -0.15,5.25 -0.15,5.25 C-0.15,5.25 1.04,5.25 1.04,5.25 C1.04,5.25 7.5,5.25 7.5,5.25 C8.7,5.25 9.68,4.31 9.75,3.13 C9.75,3.13 9.75,3 9.75,3 C9.75,3 9.75,-6 9.75,-6 C9.75,-7.2 8.81,-8.18 7.63,-8.25 C7.63,-8.25 7.5,-8.25 7.5,-8.25 C7.5,-8.25 0.57,-8.24 0.57,-8.24 C0.57,-8.24 -0.42,-8.24 -0.42,-8.24 C-0.42,-8.24 -1.21,-8.24 -1.21,-8.24 C-1.21,-8.24 -7.5,-8.25 -7.5,-8.25z " keyTimes="0;0.07;0.085;0.095;0.12;1" values="M-0.53 -1.77 C-0.62,-1.77 -0.69,-1.5 -0.7,-1.15 C-0.7,-1.15 -0.7,-1.11 -0.7,-1.11 C-0.7,-1.11 -0.7,-1.11 -0.7,-1.11 C-0.7,-0.75 -0.63,-0.47 -0.55,-0.45 C-0.55,-0.45 -0.54,-0.45 -0.54,-0.45 C-0.54,-0.45 -0.17,-0.45 -0.17,-0.45 C-0.17,-0.45 -0.13,-0.45 -0.13,-0.45 C-0.13,-0.45 -0.05,-0.45 -0.05,-0.45 C-0.05,-0.45 0.54,-0.45 0.54,-0.45 C0.62,-0.45 0.69,-0.72 0.7,-1.07 C0.7,-1.07 0.7,-1.11 0.7,-1.11 C0.7,-1.11 0.7,-1.11 0.7,-1.11 C0.7,-1.46 0.63,-1.75 0.55,-1.77 C0.55,-1.77 0.54,-1.77 0.54,-1.77 C0.54,-1.77 -0.07,-1.77 -0.07,-1.77 C-0.07,-1.77 -0.14,-1.77 -0.14,-1.77 C-0.14,-1.77 -0.19,-1.77 -0.19,-1.77 C-0.19,-1.77 -0.53,-1.77 -0.53,-1.77z  M-7.87 -8.43 C-7.87,-8.43 7.84,-8.44 7.84,-8.44 C7.84,-8.44 7.97,-8.44 7.97,-8.44 C9.15,-8.37 10.09,-7.35 10.09,-6.15 C10.09,-6.15 10.07,3.55 10.07,3.55 C10.07,3.55 10.06,3.69 10.06,3.69 C9.99,4.87 9.01,5.8 7.82,5.8 C7.82,5.8 -7.9,5.82 -7.9,5.82 C-7.9,5.82 -8.03,5.81 -8.03,5.81 C-9.21,5.74 -10.15,4.76 -10.15,3.57 C-10.15,3.57 -10.12,-6.14 -10.12,-6.14 C-10.12,-6.14 -10.12,-6.31 -10.12,-6.31 C-10.05,-7.49 -9.07,-8.43 -7.87,-8.43z ;M-0.53 -1.77 C-0.62,-1.77 -0.69,-1.5 -0.7,-1.15 C-0.7,-1.15 -0.7,-1.11 -0.7,-1.11 C-0.7,-1.11 -0.7,-1.11 -0.7,-1.11 C-0.7,-0.75 -0.63,-0.47 -0.55,-0.45 C-0.55,-0.45 -0.54,-0.45 -0.54,-0.45 C-0.54,-0.45 -0.17,-0.45 -0.17,-0.45 C-0.17,-0.45 -0.13,-0.45 -0.13,-0.45 C-0.13,-0.45 -0.05,-0.45 -0.05,-0.45 C-0.05,-0.45 0.54,-0.45 0.54,-0.45 C0.62,-0.45 0.69,-0.72 0.7,-1.07 C0.7,-1.07 0.7,-1.11 0.7,-1.11 C0.7,-1.11 0.7,-1.11 0.7,-1.11 C0.7,-1.46 0.63,-1.75 0.55,-1.77 C0.55,-1.77 0.54,-1.77 0.54,-1.77 C0.54,-1.77 -0.07,-1.77 -0.07,-1.77 C-0.07,-1.77 -0.14,-1.77 -0.14,-1.77 C-0.14,-1.77 -0.19,-1.77 -0.19,-1.77 C-0.19,-1.77 -0.53,-1.77 -0.53,-1.77z  M-7.87 -8.43 C-7.87,-8.43 7.84,-8.44 7.84,-8.44 C7.84,-8.44 7.97,-8.44 7.97,-8.44 C9.15,-8.37 10.09,-7.35 10.09,-6.15 C10.09,-6.15 10.07,3.55 10.07,3.55 C10.07,3.55 10.06,3.69 10.06,3.69 C9.99,4.87 9.01,5.8 7.82,5.8 C7.82,5.8 -7.9,5.82 -7.9,5.82 C-7.9,5.82 -8.03,5.81 -8.03,5.81 C-9.21,5.74 -10.15,4.76 -10.15,3.57 C-10.15,3.57 -10.12,-6.14 -10.12,-6.14 C-10.12,-6.14 -10.12,-6.31 -10.12,-6.31 C-10.05,-7.49 -9.07,-8.43 -7.87,-8.43z ;M-7.5 -1.77 C-8.69,-1.77 -9.68,-1.5 -9.74,-1.15 C-9.74,-1.15 -9.75,-1.11 -9.75,-1.11 C-9.75,-1.11 -9.75,-1.11 -9.75,-1.11 C-9.75,-0.75 -8.82,-0.47 -7.63,-0.45 C-7.63,-0.45 -7.5,-0.45 -7.5,-0.45 C-7.5,-0.45 -1.67,-0.45 -1.67,-0.45 C-1.67,-0.45 -1.24,1.04 -0.28,1.04 C0.67,1.04 1.45,-0.45 1.45,-0.45 C1.45,-0.45 7.5,-0.45 7.5,-0.45 C8.7,-0.45 9.68,-0.72 9.74,-1.07 C9.74,-1.07 9.75,-1.11 9.75,-1.11 C9.75,-1.11 9.75,-1.11 9.75,-1.11 C9.75,-1.46 8.82,-1.75 7.64,-1.77 C7.64,-1.77 7.5,-1.77 7.5,-1.77 C7.5,-1.77 1.31,-1.77 1.31,-1.77 C1.31,-1.77 1.35,-3.54 -0.25,-3.44 C-1.84,-3.33 -1.84,-1.77 -1.84,-1.77 C-1.84,-1.77 -7.5,-1.77 -7.5,-1.77z  M-7.87 -8.43 C-7.87,-8.43 7.84,-8.44 7.84,-8.44 C7.84,-8.44 7.97,-8.44 7.97,-8.44 C9.15,-8.37 10.09,-7.35 10.09,-6.15 C10.09,-6.15 10.07,3.55 10.07,3.55 C10.07,3.55 10.06,3.69 10.06,3.69 C9.99,4.87 9.01,5.8 7.82,5.8 C7.82,5.8 -7.9,5.82 -7.9,5.82 C-7.9,5.82 -8.03,5.81 -8.03,5.81 C-9.21,5.74 -10.15,4.76 -10.15,3.57 C-10.15,3.57 -10.12,-6.14 -10.12,-6.14 C-10.12,-6.14 -10.12,-6.31 -10.12,-6.31 C-10.05,-7.49 -9.07,-8.43 -7.87,-8.43z ;M-7.5 -4.16 C-8.7,-4.16 -9.68,-3.64 -9.74,-2.99 C-9.74,-2.99 -9.75,-2.91 -9.75,-2.91 C-9.75,-2.91 -9.75,0.41 -9.75,0.41 C-9.75,1.07 -8.82,1.61 -7.63,1.65 C-7.63,1.65 -7.5,1.65 -7.5,1.65 C-7.5,1.65 -1.33,1.65 -1.33,1.65 C-1.33,1.65 -0.83,1.68 -0.23,1.68 C0.38,1.68 1.3,1.65 1.3,1.65 C1.3,1.65 7.5,1.65 7.5,1.65 C8.7,1.65 9.68,1.13 9.74,0.48 C9.74,0.48 9.75,0.41 9.75,0.41 C9.75,0.41 9.75,-2.91 9.75,-2.91 C9.75,-3.58 8.82,-4.12 7.63,-4.16 C7.63,-4.16 7.5,-4.16 7.5,-4.16 C7.5,-4.16 1.04,-4.16 1.04,-4.16 C1.04,-4.16 0.69,-4.29 -0.32,-4.23 C-1.32,-4.16 -1.61,-4.16 -1.61,-4.16 C-1.61,-4.16 -7.5,-4.16 -7.5,-4.16z  M-7.87 -8.43 C-7.87,-8.43 7.84,-8.44 7.84,-8.44 C7.84,-8.44 7.97,-8.44 7.97,-8.44 C9.15,-8.37 10.09,-7.35 10.09,-6.15 C10.09,-6.15 10.07,3.55 10.07,3.55 C10.07,3.55 10.06,3.69 10.06,3.69 C9.99,4.87 9.01,5.8 7.82,5.8 C7.82,5.8 -7.9,5.82 -7.9,5.82 C-7.9,5.82 -8.03,5.81 -8.03,5.81 C-9.21,5.74 -10.15,4.76 -10.15,3.57 C-10.15,3.57 -10.12,-6.14 -10.12,-6.14 C-10.12,-6.14 -10.12,-6.31 -10.12,-6.31 C-10.05,-7.49 -9.07,-8.43 -7.87,-8.43z ;M-7.5 -8.25 C-8.7,-8.25 -9.68,-7.31 -9.75,-6.13 C-9.75,-6.13 -9.75,-6 -9.75,-6 C-9.75,-6 -9.75,3 -9.75,3 C-9.75,4.2 -8.81,5.18 -7.63,5.25 C-7.63,5.25 -7.5,5.25 -7.5,5.25 C-7.5,5.25 -0.76,5.25 -0.76,5.25 C-0.76,5.25 -0.15,5.25 -0.15,5.25 C-0.15,5.25 1.04,5.25 1.04,5.25 C1.04,5.25 7.5,5.25 7.5,5.25 C8.7,5.25 9.68,4.31 9.75,3.13 C9.75,3.13 9.75,3 9.75,3 C9.75,3 9.75,-6 9.75,-6 C9.75,-7.2 8.81,-8.18 7.63,-8.25 C7.63,-8.25 7.5,-8.25 7.5,-8.25 C7.5,-8.25 0.57,-8.24 0.57,-8.24 C0.57,-8.24 -0.42,-8.24 -0.42,-8.24 C-0.42,-8.24 -1.21,-8.24 -1.21,-8.24 C-1.21,-8.24 -7.5,-8.25 -7.5,-8.25z  M-7.87 -8.43 C-7.87,-8.43 7.84,-8.44 7.84,-8.44 C7.84,-8.44 7.97,-8.44 7.97,-8.44 C9.15,-8.37 10.09,-7.35 10.09,-6.15 C10.09,-6.15 10.07,3.55 10.07,3.55 C10.07,3.55 10.06,3.69 10.06,3.69 C9.99,4.87 9.01,5.8 7.82,5.8 C7.82,5.8 -7.9,5.82 -7.9,5.82 C-7.9,5.82 -8.03,5.81 -8.03,5.81 C-9.21,5.74 -10.15,4.76 -10.15,3.57 C-10.15,3.57 -10.12,-6.14 -10.12,-6.14 C-10.12,-6.14 -10.12,-6.31 -10.12,-6.31 C-10.05,-7.49 -9.07,-8.43 -7.87,-8.43z ;M-7.5 -8.25 C-8.7,-8.25 -9.68,-7.31 -9.75,-6.13 C-9.75,-6.13 -9.75,-6 -9.75,-6 C-9.75,-6 -9.75,3 -9.75,3 C-9.75,4.2 -8.81,5.18 -7.63,5.25 C-7.63,5.25 -7.5,5.25 -7.5,5.25 C-7.5,5.25 -0.76,5.25 -0.76,5.25 C-0.76,5.25 -0.15,5.25 -0.15,5.25 C-0.15,5.25 1.04,5.25 1.04,5.25 C1.04,5.25 7.5,5.25 7.5,5.25 C8.7,5.25 9.68,4.31 9.75,3.13 C9.75,3.13 9.75,3 9.75,3 C9.75,3 9.75,-6 9.75,-6 C9.75,-7.2 8.81,-8.18 7.63,-8.25 C7.63,-8.25 7.5,-8.25 7.5,-8.25 C7.5,-8.25 0.57,-8.24 0.57,-8.24 C0.57,-8.24 -0.42,-8.24 -0.42,-8.24 C-0.42,-8.24 -1.21,-8.24 -1.21,-8.24 C-1.21,-8.24 -7.5,-8.25 -7.5,-8.25z  M-7.87 -8.43 C-7.87,-8.43 7.84,-8.44 7.84,-8.44 C7.84,-8.44 7.97,-8.44 7.97,-8.44 C9.15,-8.37 10.09,-7.35 10.09,-6.15 C10.09,-6.15 10.07,3.55 10.07,3.55 C10.07,3.55 10.06,3.69 10.06,3.69 C9.99,4.87 9.01,5.8 7.82,5.8 C7.82,5.8 -7.9,5.82 -7.9,5.82 C-7.9,5.82 -8.03,5.81 -8.03,5.81 C-9.21,5.74 -10.15,4.76 -10.15,3.57 C-10.15,3.57 -10.12,-6.14 -10.12,-6.14 C-10.12,-6.14 -10.12,-6.31 -10.12,-6.31 C-10.05,-7.49 -9.07,-8.43 -7.87,-8.43z " keySplines="0.167 0.167 0.833 0.833;0.167 0.167 0.833 0.833;0.167 0.167 0.833 0.833;0.167 0.167 0.667 1;0 0 0 0" calcMode="spline" data-original-duration="3.3333333333333335s" max="3.3333333333333335"></animate><animate repeatCount="0" dur="3.3333333333333335" begin="0s" xlink:href="#IcSystemTv32__R_G_L_0_G_L_1_G" fill="freeze" attributeName="opacity" from="0" to="1" keyTimes="0;0.015;1" values="0;1;1" keySplines="0.167 0.167 0.833 0.833;0 0 0 0" calcMode="spline" data-original-duration="3.3333333333333335s" max="3.3333333333333335"></animate><animateTransform repeatCount="0" dur="3.3333333333333335" begin="0s" xlink:href="#IcSystemTv32__R_G_L_0_G_L_1_G_N_5_N_6_T_0" fill="freeze" attributeName="transform" from="1 1" to="1 1" type="scale" additive="sum" keyTimes="0;0.025;0.17;0.505;0.53;0.675;1" values="1 1;0.75 0.75;1 1;1 1;0.75 0.75;1 1;1 1" keySplines="0.167 0.167 0 1;0.54 0 0.207 1;0.167 0 0.833 1;0.167 0.167 0 1;0.54 0 0.207 1;0 0 0 0" calcMode="spline" data-original-duration="3.3333333333333335s" max="3.3333333333333335"></animateTransform><animateTransform repeatCount="0" dur="3.3333333333333335" begin="0s" xlink:href="#IcSystemTv32__R_G_L_0_G_L_1_G_N_5_N_6_T_0" fill="freeze" attributeName="transform" from="-60 -60" to="-60 -60" type="translate" additive="sum" keyTimes="0;1" values="-60 -60;-60 -60" keySplines="0 0 1 1" calcMode="spline" data-original-duration="3.3333333333333335s" max="3.3333333333333335"></animateTransform><animate repeatCount="0" dur="3.3333333333333335" begin="0s" xlink:href="#IcSystemTv32__R_G_L_0_G_L_1_G_N_5_N_6_T_0_M" fill="freeze" attributeName="opacity" from="0" to="0" keyTimes="0;0.07;0.0700005;0.265;0.265;1" values="0;0;1;1;0;0" keySplines="0 0 0 0;0 0 0 0;0 0 0 0;0 0 0 0;0 0 0 0" calcMode="spline" data-original-duration="3.3333333333333335s" max="3.3333333333333335"></animate><animateTransform repeatCount="0" dur="3.3333333333333335" begin="0s" xlink:href="#IcSystemTv32__R_G_L_0_G_L_0_G_N_5_N_6_T_0" fill="freeze" attributeName="transform" from="1 1" to="1 1" type="scale" additive="sum" keyTimes="0;0.025;0.17;0.505;0.53;0.675;1" values="1 1;0.75 0.75;1 1;1 1;0.75 0.75;1 1;1 1" keySplines="0.167 0.167 0 1;0.54 0 0.207 1;0.167 0 0.833 1;0.167 0.167 0 1;0.54 0 0.207 1;0 0 0 0" calcMode="spline" data-original-duration="3.3333333333333335s" max="3.3333333333333335"></animateTransform><animateTransform repeatCount="0" dur="3.3333333333333335" begin="0s" xlink:href="#IcSystemTv32__R_G_L_0_G_L_0_G_N_5_N_6_T_0" fill="freeze" attributeName="transform" from="-60 -60" to="-60 -60" type="translate" additive="sum" keyTimes="0;1" values="-60 -60;-60 -60" keySplines="0 0 1 1" calcMode="spline" data-original-duration="3.3333333333333335s" max="3.3333333333333335"></animateTransform><animate attributeType="XML" attributeName="opacity" dur="3" from="0" to="1" xlink:href="#IcSystemTv32_time_group" data-original-duration="3s" repeatCount="0" max="3"></animate></defs></svg>